<?xml version="1.0" standalone="no"?>
<!DOCTYPE svg PUBLIC "-//W3C//DTD SVG 20010904//EN"
 "http://www.w3.org/TR/2001/REC-SVG-20010904/DTD/svg10.dtd">
<svg version="1.0" xmlns="http://www.w3.org/2000/svg"
 width="700.000000pt" height="700.000000pt" viewBox="0 0 700.000000 700.000000"
 preserveAspectRatio="xMidYMid meet">
<metadata>
Created by potrace 1.14, written by Peter Selinger 2001-2017
</metadata>
<g transform="translate(0.000000,700.000000) scale(0.100000,-0.100000)"
fill="#000000" stroke="none">
<path d="M3330 6653 c-405 -42 -780 -192 -1096 -439 -92 -72 -248 -223 -311
-302 -21 -26 -46 -56 -56 -67 -44 -47 -172 -252 -231 -371 -58 -116 -156 -381
-170 -459 -2 -16 -7 -41 -11 -55 -3 -14 -7 -38 -10 -55 -3 -16 -8 -43 -11 -58
-32 -155 -36 -498 -9 -677 24 -152 77 -354 125 -480 45 -114 110 -250 126
-265 7 -5 23 -30 36 -55 33 -63 71 -120 154 -230 39 -52 78 -108 86 -125 8
-16 73 -136 145 -265 71 -129 182 -334 248 -455 134 -251 169 -309 203 -347
l24 -26 -45 -20 c-30 -13 -55 -34 -72 -61 -24 -35 -27 -50 -28 -128 -1 -106
17 -152 75 -190 30 -20 52 -26 99 -27 45 -1 56 -4 44 -11 -75 -45 -102 -93
-104 -188 -3 -163 56 -227 211 -227 l73 -1 -38 -14 c-21 -7 -40 -15 -41 -17
-1 -1 -15 -20 -30 -40 -23 -31 -28 -49 -30 -105 -3 -85 8 -146 31 -178 30 -39
85 -65 142 -65 55 0 43 11 160 -139 98 -126 146 -172 221 -212 43 -23 56 -24
255 -27 266 -4 287 2 404 116 43 43 97 104 121 137 24 33 50 66 57 73 7 8 18
22 23 33 9 15 22 19 65 19 76 0 123 28 155 90 27 53 27 187 1 239 -20 37 -67
81 -89 81 -6 0 -13 3 -15 8 -3 4 25 6 63 4 137 -7 206 63 204 208 -1 114 -22
158 -91 194 -18 9 -33 18 -33 19 0 1 21 2 48 2 88 -2 158 42 182 115 20 61 9
191 -20 233 -29 42 -68 67 -110 70 -28 2 -40 11 -22 19 20 8 88 110 138 207
64 126 55 111 327 571 119 201 224 374 234 385 31 33 136 185 180 260 125 213
210 437 261 690 32 154 37 222 36 465 0 189 -4 245 -23 350 -30 162 -79 332
-137 473 -41 100 -65 149 -134 271 -20 36 -111 177 -120 186 -3 3 -25 32 -50
65 -70 92 -215 240 -325 330 -218 179 -457 308 -716 385 -111 33 -118 35 -229
55 -41 7 -91 16 -110 20 -40 7 -386 14 -440 8z"/>
</g>
</svg>
